# xmcd
#
# Track frame offsets:
#	150
#	15329
#	31931
#	43635
#	59466
#	72831
#	84882
#	102510
#	118233
#	128024
#	140209
#	154953
#	168151
#	184144
#	204536
#	217270
#
# Disc length: 3112 seconds
#
# Revision: 0
# Processed by: cddbd v1.5.2PL0 Copyright (c) Steve Scherf et al.
# Submitted via: EasyCDDAExtractor 16.0.6.1
#
DISCID=e60c2610
DTITLE=Kathy Durkin - Kathy's Gold
DYEAR=2009
DGENRE=Country
TTITLE0=Down At The Twist 'n' Shout
TTITLE1=Slow Country Dance
TTITLE2=Every Second
TTITLE3=My Own Native Land
TTITLE4=Howling At The Moon
TTITLE5=Funny Face
TTITLE6=Seven Spanish Angels
TTITLE7=Mother From Mayo
TTITLE8=You Are The One
TTITLE9=All Things Made New Again
TTITLE10=Somewhere Tonight
TTITLE11=Shanagolden
TTITLE12=Raglan Road
TTITLE13=Ballad Of Lucy Jordan
TTITLE14=Memories Of Home
TTITLE15=Blue Hills Of Breffni - Old Dungarvan Oak - Star Of The County Down
EXTD=
EXTT0=
EXTT1=
EXTT2=
EXTT3=
EXTT4=
EXTT5=
EXTT6=
EXTT7=
EXTT8=
EXTT9=
EXTT10=
EXTT11=
EXTT12=
EXTT13=
EXTT14=
EXTT15=
PLAYORDER=
